{"title":"Furthur 2012-07-05 McCoy Stadum, Pawtucket, RI SBD/Tagged","uid":7446332,"size":899259343,"categoryP":"audio","categoryS":"flac","magnet":"?xt=urn:btih:192ac4fdaffd5d157e69ae2de2f447c5f845881f&amp;dn=Furthur+2012-07-05+McCoy+Stadum%2C+Pawtucket%2C+RI+SBD%2FTagged&amp;tr=udp%3A%2F%2Ftracker.openbittorrent.com%3A80&amp;tr=udp%3A%2F%2Fopen.demonii.com%3A1337&amp;tr=udp%3A%2F%2Ftracker.coppersurfer.tk%3A6969&amp;tr=udp%3A%2F%2Fexodus.desync.com%3A6969","seeders":1,"leechers":0,"uploader":"terrapin2012","files":25,"time":1342378979,"description":"Furthur\nMcCoy Stadium\nPawtucket, RI\nJuly 5, 2012\n\nMSR &gt; CDR &gt; EAC &gt; TLH &gt; FLAC 8 &gt; YOU\n\n01. Dancin' in the Streets &gt;\n02. Shakedown Street &gt;\n03. Jack Straw\n04. Let it Ride\n05. Black Throated Wind\n06. Reuben and Cherise &gt;\n07. The Last Time\n08. Casey Jones\n\nSet 2 - Disc 2:\n01. Golden Road &gt;\n02. Cryptical Envelopment &gt;\n03. The Other One &gt;\n04. Cryptical Envelopment &gt;\n05. Dear Mr. Fantasy &gt;\n06. Playin' in the Band\n\nSet 2 - Disc 3:\n01. Standing on the Moon\n02. Hey Pocky Way\n03. Sugar Magnolia \nEncore \n04. Donor Rap\n05. Liberty &gt;\n06. Uncle John's Band\n\n    length     expanded size    cdr  WAVE problems  fmt   ratio  filename\n     9:09.57       96977668 B   -b-   --   ---xx   flac  0.4823  furthur2012-07-05d1t01.flac\n    16:12.54      171586872 B   -b-   --   ---xx   flac  0.4941  furthur2012-07-05d1t02.flac\n    13:30.74      143058052 B   -b-   --   ---xx   flac  0.4751  furthur2012-07-05d1t03.flac\n     6:44.66       71421780 B   -b-   --   ---xx   flac  0.4831  furthur2012-07-05d1t04.flac\n     8:09.45       86365444 B   -b-   --   ---xx   flac  0.4557  furthur2012-07-05d1t05.flac\n     9:17.15       98291028 B   -b-   --   ---xx   flac  0.4853  furthur2012-07-05d1t06.flac\n     5:13.56       55345388 B   -b-   --   ---xx   flac  0.5189  furthur2012-07-05d1t07.flac\n     7:11.61       76170936 B   -b-   --   ---xx   flac  0.5154  furthur2012-07-05d1t08.flac\n     8:47.29       93030072 B   -b-   --   ---xx   flac  0.4968  furthur2012-07-05d2t01.flac\n     4:27.18       47141612 B   -b-   --   ---xx   flac  0.4584  furthur2012-07-05d2t02.flac\n    11:08.66      117991380 B   -b-   --   ---xx   flac  0.4647  furthur2012-07-05d2t03.flac\n     1:47.39       18966532 B   -b-   --   ---xx   flac  0.4604  furthur2012-07-05d2t04.flac\n     7:44.03       81857132 B   -b-   --   ---xx   flac  0.5364  furthur2012-07-05d2t05.flac\n    13:46.53      145831532 B   -b-   --   ---xx   flac  0.4743  furthur2012-07-05d2t06.flac\n     9:30.10      100571524 B   -b-   --   ---xx   flac  0.4500  furthur2012-07-05d3t01.flac\n     7:48.60       82696324 B   -b-   --   ---xx   flac  0.5223  furthur2012-07-05d3t02.flac\n    13:21.72      141466220 B   -b-   --   ---xx   flac  0.4859  furthur2012-07-05d3t03.flac\n     2:09.00       22756076 B   -b-   --   ---xx   flac  0.4152  furthur2012-07-05d3t04.flac\n     8:26.08       89278164 B   -b-   --   ---xx   flac  0.4785  furthur2012-07-05d3t05.flac\n    10:20.12      109396228 B   -b-   --   ---xx   flac  0.5151  furthur2012-07-05d3t06.flac\n   174:48.49     1850199964 B                            0.4860  (20 files)\n\nNo errors occured.","torrent":{"xt":"urn:btih:192ac4fdaffd5d157e69ae2de2f447c5f845881f","amp;dn":"Furthur+2012-07-05+McCoy+Stadum%2C+Pawtucket%2C+RI+SBD%2FTagged","amp;tr":["udp%3A%2F%2Ftracker.openbittorrent.com%3A80","udp%3A%2F%2Fopen.demonii.com%3A1337","udp%3A%2F%2Ftracker.coppersurfer.tk%3A6969","udp%3A%2F%2Fexodus.desync.com%3A6969"],"infoHash":"192ac4fdaffd5d157e69ae2de2f447c5f845881f","infoHashBuffer":{"type":"Buffer","data":[25,42,196,253,175,253,93,21,126,105,174,45,226,244,71,197,248,69,136,31]},"announce":[],"urlList":[]}}